<?xml version="1.0" standalone="no"?>
<!DOCTYPE svg PUBLIC "-//W3C//DTD SVG 20010904//EN"
 "http://www.w3.org/TR/2001/REC-SVG-20010904/DTD/svg10.dtd">
<svg version="1.0" xmlns="http://www.w3.org/2000/svg"
 viewBox="0 0 500.000000 500.000000"
 preserveAspectRatio="xMidYMid meet">

<g transform="translate(0.000000,500.000000) scale(0.100000,-0.100000)"
fill="#000000" stroke="none">
<path d="M1100 2990 l0 -150 165 0 165 0 0 -460 0 -460 170 0 170 0 0 460 0
460 170 0 170 0 0 150 0 150 -505 0 -505 0 0 -150z"/>
<path d="M2270 2530 l0 -610 170 0 170 0 0 190 0 190 235 0 235 0 0 145 0 145
-235 0 -235 0 0 125 0 125 323 2 322 3 3 148 3 147 -496 0 -495 0 0 -610z"/>
<path d="M3615 3128 c-2 -7 -70 -260 -150 -563 -81 -302 -153 -571 -160 -598
l-14 -47 161 2 162 3 163 605 c89 333 163 606 163 608 0 1 -72 2 -160 2 -120
0 -162 -3 -165 -12z"/>
<path d="M497 2762 l-448 -196 3 -124 3 -124 325 -143 c179 -78 382 -167 453
-198 l127 -56 0 143 0 144 -252 112 c-139 61 -256 115 -260 119 -4 3 108 58
250 122 l257 114 3 143 c1 78 -1 142 -5 141 -5 0 -210 -88 -456 -197z"/>
<path d="M4042 2819 l3 -144 257 -114 c142 -64 254 -119 250 -122 -4 -4 -121
-58 -259 -119 l-253 -112 0 -143 0 -144 123 54 c67 30 271 119 452 199 l330
145 3 123 3 123 -438 192 c-241 105 -446 195 -456 199 -16 6 -17 -3 -15 -137z"/>
</g>
</svg>
